<?xml version="1.0" encoding="UTF-8" standalone="no"?><svg xmlns="http://www.w3.org/2000/svg" xmlns:xlink="http://www.w3.org/1999/xlink" contentScriptType="application/ecmascript" contentStyleType="text/css" height="186px" preserveAspectRatio="none" style="width:300px;height:186px;" version="1.1" viewBox="0 0 300 186" width="300px" zoomAndPan="magnify"><defs><filter height="300%" id="fnvay932hoocd" width="300%" x="-1" y="-1"><feGaussianBlur result="blurOut" stdDeviation="2.0"/><feColorMatrix in="blurOut" result="blurOut2" type="matrix" values="0 0 0 0 0 0 0 0 0 0 0 0 0 0 0 0 0 0 .4 0"/><feOffset dx="4.0" dy="4.0" in="blurOut2" result="blurOut3"/><feBlend in="SourceGraphic" in2="blurOut3" mode="normal"/></filter></defs><g><path d="M33,38.2969 L33.2802,38.2969 L32.4476,48.0491 L33.2577,57.8013 L33.5329,67.5536 L32.0488,77.3058 L32.8964,87.058 L32.4313,96.8103 L32.4887,106.5625 L32.9091,116.3147 L32.0782,126.067 L33.7382,135.8192 L32.1596,145.5714 L32.7363,155.3237 L33.5759,165.0759 L33,174.8281 " fill="none" style="stroke: #383838; stroke-width: 1.0; stroke-dasharray: 5.0,5.0;"/><path d="M270,38.2969 L270.2802,38.2969 L269.4476,48.0491 L270.2577,57.8013 L270.5329,67.5536 L269.0488,77.3058 L269.8964,87.058 L269.4313,96.8103 L269.4887,106.5625 L269.9091,116.3147 L269.0782,126.067 L270.7382,135.8192 L269.1596,145.5714 L269.7363,155.3237 L270.5759,165.0759 L270,174.8281 " fill="none" style="stroke: #383838; stroke-width: 1.0; stroke-dasharray: 5.0,5.0;"/><polygon fill="#F8F8F8" filter="url(#fnvay932hoocd)" points="8,3,8,3.2102,17.2,2.5857,26.4,3.1933,35.6,3.3997,44.8,2.2866,54,3,53.9741,3,53.8578,9.0594,53.8722,15.1188,53.9773,21.1781,53.7695,27.2375,54,33.2969,54,33.8505,44.8,32.6666,35.6,33.0991,26.4,33.7288,17.2,33.2111,8,33.2969,8.0227,33.2969,7.9894,27.2375,8.0595,21.1781,8.0797,15.1187,8.1952,9.0594,8,3" style="stroke: #383838; stroke-width: 1.5;"/><text fill="#000000" font-family="sans-serif" font-size="14" lengthAdjust="spacingAndGlyphs" textLength="32" x="15" y="22.9951">Alice</text><polygon fill="#F8F8F8" filter="url(#fnvay932hoocd)" points="247,3,247,3.0701,255.4,2.8619,263.8,3.0644,272.2,3.1332,280.6,2.7622,289,3,288.9741,3,288.8578,9.0594,288.8722,15.1188,288.9773,21.1781,288.7695,27.2375,289,33.2969,289,33.4814,280.6,33.0868,272.2,33.231,263.8,33.4409,255.4,33.2683,247,33.2969,247.0227,33.2969,246.9894,27.2375,247.0595,21.1781,247.0797,15.1187,247.1952,9.0594,247,3" style="stroke: #383838; stroke-width: 1.5;"/><text fill="#000000" font-family="sans-serif" font-size="14" lengthAdjust="spacingAndGlyphs" textLength="28" x="254" y="22.9951">Bob</text><polygon fill="#383838" points="258,65.4297,258.026,65.4947,259.9487,66.1015,262.0239,67.0895,264.0495,67.9534,265.9117,68.4089,268,69.4297,267.9904,69.4056,265.9472,70.0977,263.9525,70.911,261.9916,71.8086,259.9144,72.4157,258,73.4297,258.1305,73.5602,258.6514,72.4811,259.5534,71.7831,260.5018,71.1315,261.1798,70.2095,262,69.4297,262.0161,69.4458,261.1925,68.6222,260.4421,67.8718,259.6564,67.0861,258.938,66.3677,258,65.4297" style="stroke: #383838; stroke-width: 1.0;"/><path d="M33,69.4297 L33,69.7099 L43.0435,68.8773 L53.087,69.6874 L63.1304,69.9626 L73.1739,68.4785 L83.2174,69.3261 L93.2609,68.861 L103.3043,68.9184 L113.3478,69.3388 L123.3913,68.5079 L133.4348,70.1679 L143.4783,68.5893 L153.5217,69.166 L163.5652,70.0056 L173.6087,69.3153 L183.6522,69.5207 L193.6957,69.3871 L203.7391,69.6677 L213.7826,69.7485 L223.8261,70.2106 L233.8696,70.3244 L243.913,70.3354 L253.9565,69.7692 L264,69.4297 " fill="none" style="stroke: #383838; stroke-width: 1.0;"/><text fill="#000000" font-family="sans-serif" font-size="13" lengthAdjust="spacingAndGlyphs" textLength="149" x="40" y="64.3638">Authentication Request</text><polygon fill="#383838" points="44,94.5625,44.026,94.6275,41.9487,95.2343,40.0239,96.2223,38.0495,97.0862,35.9117,97.5417,34,98.5625,33.9904,98.5384,35.9472,99.2305,37.9525,100.0438,39.9916,100.9414,41.9144,101.5485,44,102.5625,44.1305,102.693,43.0514,101.6139,42.3534,100.9159,41.7018,100.2643,40.7798,99.3423,40,98.5625,40.0161,98.5786,40.7925,97.755,41.6421,97.0046,42.4564,96.2189,43.338,95.5005,44,94.5625" style="stroke: #383838; stroke-width: 1.0;"/><path d="M38,98.5625 L38,98.8427 L48.0435,98.0101 L58.087,98.8202 L68.1304,99.0954 L78.1739,97.6113 L88.2174,98.4589 L98.2609,97.9938 L108.3043,98.0512 L118.3478,98.4716 L128.3913,97.6407 L138.4348,99.3007 L148.4783,97.7221 L158.5217,98.2988 L168.5652,99.1384 L178.6087,98.4481 L188.6522,98.6535 L198.6957,98.5199 L208.7391,98.8005 L218.7826,98.8813 L228.8261,99.3434 L238.8696,99.4572 L248.913,99.4682 L258.9565,98.902 L269,98.5625 " fill="none" style="stroke: #383838; stroke-width: 1.0; stroke-dasharray: 2.0,2.0;"/><text fill="#000000" font-family="sans-serif" font-size="13" lengthAdjust="spacingAndGlyphs" textLength="159" x="50" y="93.4966">Authentication Response</text><polygon fill="#383838" points="258,123.6953,258.026,123.7604,259.9487,124.3671,262.0239,125.3551,264.0495,126.219,265.9117,126.6745,268,127.6953,267.9904,127.6713,265.9472,128.3633,263.9525,129.1766,261.9916,130.0742,259.9144,130.6813,258,131.6953,258.1305,131.8258,258.6514,130.7468,259.5534,130.0487,260.5018,129.3971,261.1798,128.4751,262,127.6953,262.0161,127.7114,261.1925,126.8878,260.4421,126.1374,259.6564,125.3517,258.938,124.6334,258,123.6953" style="stroke: #383838; stroke-width: 1.0;"/><path d="M33,127.6953 L33,127.9756 L43.0435,127.1429 L53.087,127.953 L63.1304,128.2282 L73.1739,126.7441 L83.2174,127.5917 L93.2609,127.1267 L103.3043,127.184 L113.3478,127.6044 L123.3913,126.7735 L133.4348,128.4335 L143.4783,126.8549 L153.5217,127.4316 L163.5652,128.2712 L173.6087,127.5809 L183.6522,127.7863 L193.6957,127.6527 L203.7391,127.9333 L213.7826,128.0142 L223.8261,128.4762 L233.8696,128.5901 L243.913,128.601 L253.9565,128.0348 L264,127.6953 " fill="none" style="stroke: #383838; stroke-width: 1.0;"/><text fill="#000000" font-family="sans-serif" font-size="13" lengthAdjust="spacingAndGlyphs" textLength="203" x="40" y="122.6294">Another authentication Request</text><polygon fill="#383838" points="44,152.8281,44.026,152.8932,41.9487,153.4999,40.0239,154.4879,38.0495,155.3518,35.9117,155.8073,34,156.8281,33.9904,156.8041,35.9472,157.4961,37.9525,158.3094,39.9916,159.207,41.9144,159.8142,44,160.8281,44.1305,160.9586,43.0514,159.8796,42.3534,159.1815,41.7018,158.5299,40.7798,157.6079,40,156.8281,40.0161,156.8442,40.7925,156.0206,41.6421,155.2702,42.4564,154.4845,43.338,153.7662,44,152.8281" style="stroke: #383838; stroke-width: 1.0;"/><path d="M38,156.8281 L38,157.1084 L48.0435,156.2757 L58.087,157.0858 L68.1304,157.361 L78.1739,155.8769 L88.2174,156.7245 L98.2609,156.2595 L108.3043,156.3168 L118.3478,156.7372 L128.3913,155.9063 L138.4348,157.5663 L148.4783,155.9878 L158.5217,156.5644 L168.5652,157.4041 L178.6087,156.7138 L188.6522,156.9191 L198.6957,156.7855 L208.7391,157.0662 L218.7826,157.147 L228.8261,157.609 L238.8696,157.7229 L248.913,157.7338 L258.9565,157.1676 L269,156.8281 " fill="none" style="stroke: #383838; stroke-width: 1.0; stroke-dasharray: 2.0,2.0;"/><text fill="#000000" font-family="sans-serif" font-size="13" lengthAdjust="spacingAndGlyphs" textLength="213" x="50" y="151.7622">Another authentication Response</text><!--MD5=[f24da200ddc5ae146dbccc041609ba40]
@startuml
skinparam handwritten true
skinparam Monochrome true
hide footbox

Alice -> Bob: Authentication Request
Bob - -> Alice: Authentication Response

Alice -> Bob: Another authentication Request
Alice <- - Bob: Another authentication Response
@enduml

PlantUML version 1.2020.02(Sun Mar 01 10:22:07 GMT 2020)
(GPL source distribution)
Java Runtime: OpenJDK Runtime Environment
JVM: OpenJDK 64-Bit Server VM
Java Version: 11.0.9+11-Ubuntu-0ubuntu1
Operating System: Linux
Default Encoding: ANSI_X3.4-1968
Language: en
Country: US
--></g></svg>