<?xml version="1.0" encoding="UTF-8" standalone="no"?><svg xmlns="http://www.w3.org/2000/svg" xmlns:xlink="http://www.w3.org/1999/xlink" contentScriptType="application/ecmascript" contentStyleType="text/css" height="265px" preserveAspectRatio="none" style="width:554px;height:265px;" version="1.1" viewBox="0 0 554 265" width="554px" zoomAndPan="magnify"><defs><filter height="300%" id="f12mfk18p1v285" width="300%" x="-1" y="-1"><feGaussianBlur result="blurOut" stdDeviation="2.0"/><feColorMatrix in="blurOut" result="blurOut2" type="matrix" values="0 0 0 0 0 0 0 0 0 0 0 0 0 0 0 0 0 0 .4 0"/><feOffset dx="4.0" dy="4.0" in="blurOut2" result="blurOut3"/><feBlend in="SourceGraphic" in2="blurOut3" mode="normal"/></filter></defs><g><polygon fill="#DDDDDD" points="138,4,138,4.2102,147.878,3.5857,157.7561,4.1933,167.6341,4.3997,177.5122,3.2866,187.3902,3.9223,197.2683,3.5735,207.1463,3.6165,217.0244,3.9318,226.9024,3.3086,236.7805,4.5536,246.6585,3.3697,256.5366,3.8022,266.4146,4.4319,276.2927,3.9142,286.1707,4.0682,296.0488,3.9681,305.9268,4.1785,315.8049,4.2391,325.6829,4.5857,335.561,4.6711,345.439,4.6793,355.3171,4.2546,365.1951,4.4636,375.0732,4.7022,384.9512,3.2788,394.8293,4.6785,404.7073,3.7035,414.5854,4.5338,424.4634,3.505,434.3415,3.9315,444.2195,4.7416,454.0976,3.9513,463.9756,4.1053,473.8537,4.3386,483.7317,4.4162,493.6098,3.9961,503.4878,4.2872,513.3659,3.4276,523.2439,4.2844,533.122,4.5482,543,4,543.4445,4,543.613,14.1344,542.5169,24.2689,542.3478,34.4033,542.3786,44.5378,542.9411,54.6722,542.8035,64.8066,543.6814,74.9411,542.8253,85.0755,542.6569,95.21,543.2283,105.3444,542.3332,115.4788,542.4809,125.6133,543.649,135.7477,543.4357,145.8822,543.7345,156.0166,542.6782,166.151,543.3192,176.2855,543.5904,186.4199,542.5276,196.5544,542.9041,206.6888,543.126,216.8232,543.6518,226.9577,542.9958,237.0921,543,247.2266,543,247.6891,533.122,246.6728,523.2439,246.5493,513.3659,247.7302,503.4878,246.5096,493.6098,247.7355,483.7317,247.4332,473.8537,246.9586,463.9756,246.8728,454.0976,247.6853,444.2195,246.9272,434.3415,247.8184,424.4634,246.6738,414.5854,247.844,404.7073,247.7109,394.8293,247.4715,384.9512,247.2738,375.0732,247.9532,365.1951,247.8401,355.3171,247.3958,345.439,247.4948,335.561,247.0963,325.6829,247.943,315.8049,247.3814,305.9268,247.3991,296.0488,246.6182,286.1707,246.8213,276.2927,247.7573,266.4146,247.6563,256.5366,247.1836,246.6585,246.9044,236.7805,247.0076,226.9024,246.5404,217.0244,247.6413,207.1463,247.9661,197.2683,247.753,187.3902,247.9215,177.5122,247.0898,167.6341,247.3138,157.7561,246.839,147.878,247.5106,138,247.2266,138.2468,247.2266,138.5524,237.0921,137.7703,226.9577,137.8656,216.8232,138.4435,206.6888,138.5673,196.5544,137.4875,186.4199,137.8061,176.2855,138.1493,166.151,137.3892,156.0166,138.3534,145.8822,138.258,135.7477,137.8992,125.6133,138.1422,115.4788,138.7287,105.3444,137.6871,95.21,138.315,85.0755,138.2856,74.9411,138.1158,64.8066,138.1409,54.6722,138.1135,44.5378,137.3758,34.4033,137.5992,24.2689,137.5385,14.1344,138,4" style="stroke: #383838; stroke-width: 1.0;"/><text fill="#000000" font-family="sans-serif" font-size="13" font-weight="bold" lengthAdjust="spacingAndGlyphs" textLength="142" x="269.5" y="16.0669">Kubernetes Cluster</text><path d="M35,58.4297 L35.2802,58.4297 L34.4476,68.6822 L35.2577,78.9346 L35.5329,89.1871 L34.0488,99.4396 L34.8964,109.692 L34.4313,119.9445 L34.4887,130.197 L34.9091,140.4494 L34.0782,150.7019 L35.7382,160.9544 L34.1596,171.2068 L34.7363,181.4593 L35.5759,191.7118 L34.8856,201.9642 L35.091,212.2167 L34.9574,222.4692 L35.238,232.7216 L35.3188,242.9741 L35,253.2266 " fill="none" style="stroke: #383838; stroke-width: 1.0; stroke-dasharray: 5.0,5.0;"/><path d="M197,58.4297 L197.2802,58.4297 L196.4476,68.6822 L197.2577,78.9346 L197.5329,89.1871 L196.0488,99.4396 L196.8964,109.692 L196.4313,119.9445 L196.4887,130.197 L196.9091,140.4494 L196.0782,150.7019 L197.7382,160.9544 L196.1596,171.2068 L196.7363,181.4593 L197.5759,191.7118 L196.8856,201.9642 L197.091,212.2167 L196.9574,222.4692 L197.238,232.7216 L197.3188,242.9741 L197,253.2266 " fill="none" style="stroke: #383838; stroke-width: 1.0; stroke-dasharray: 5.0,5.0;"/><path d="M354,58.4297 L354.2802,58.4297 L353.4476,68.6822 L354.2577,78.9346 L354.5329,89.1871 L353.0488,99.4396 L353.8964,109.692 L353.4313,119.9445 L353.4887,130.197 L353.9091,140.4494 L353.0782,150.7019 L354.7382,160.9544 L353.1596,171.2068 L353.7363,181.4593 L354.5759,191.7118 L353.8856,201.9642 L354.091,212.2167 L353.9574,222.4692 L354.238,232.7216 L354.3188,242.9741 L354,253.2266 " fill="none" style="stroke: #383838; stroke-width: 1.0; stroke-dasharray: 5.0,5.0;"/><path d="M495,58.4297 L495.2802,58.4297 L494.4476,68.6822 L495.2577,78.9346 L495.5329,89.1871 L494.0488,99.4396 L494.8964,109.692 L494.4313,119.9445 L494.4887,130.197 L494.9091,140.4494 L494.0782,150.7019 L495.7382,160.9544 L494.1596,171.2068 L494.7363,181.4593 L495.5759,191.7118 L494.8856,201.9642 L495.091,212.2167 L494.9574,222.4692 L495.238,232.7216 L495.3188,242.9741 L495,253.2266 " fill="none" style="stroke: #383838; stroke-width: 1.0; stroke-dasharray: 5.0,5.0;"/><polygon fill="#F8F8F8" filter="url(#f12mfk18p1v285)" points="8,23.1328,8,23.343,18.2,22.7185,28.4,23.3261,38.6,23.5325,48.8,22.4194,59,23.1328,58.9741,23.1328,58.8578,29.1922,58.8722,35.2516,58.9773,41.3109,58.7695,47.3703,59,53.4297,59,53.9833,48.8,52.7994,38.6,53.2319,28.4,53.8616,18.2,53.3439,8,53.4297,8.0227,53.4297,7.9894,47.3703,8.0595,41.3109,8.0797,35.2516,8.1952,29.1922,8,23.1328" style="stroke: #383838; stroke-width: 1.5;"/><text fill="#000000" font-family="sans-serif" font-size="14" lengthAdjust="spacingAndGlyphs" textLength="37" x="15" y="43.1279">client</text><polygon fill="#F8F8F8" filter="url(#f12mfk18p1v285)" points="142,23.1328,142,23.343,151.7273,22.7185,161.4545,23.3261,171.1818,23.5325,180.9091,22.4194,190.6364,23.0551,200.3636,22.7063,210.0909,22.7493,219.8182,23.0647,229.5455,22.4414,239.2727,23.6865,249,23.1328,248.7899,23.1328,248.9341,29.1922,249.144,35.2516,248.9714,41.3109,249.0227,47.3703,249,53.4297,249,53.3977,239.2727,53.6082,229.5455,53.6688,219.8182,54.0154,210.0909,54.1007,200.3636,54.1089,190.6364,53.6843,180.9091,53.8933,171.1818,54.1319,161.4545,52.7085,151.7273,54.1082,142,53.4297,141.9012,53.4297,142.1779,47.3703,141.835,41.3109,141.9772,35.2516,142.2472,29.1922,142,23.1328" style="stroke: #383838; stroke-width: 1.5;"/><text fill="#000000" font-family="sans-serif" font-size="14" lengthAdjust="spacingAndGlyphs" textLength="93" x="149" y="43.1279">nginx-ingress</text><polygon fill="#F8F8F8" filter="url(#f12mfk18p1v285)" points="300,23.1328,300,23.343,309.5455,22.7185,319.0909,23.3261,328.6364,23.5325,338.1818,22.4194,347.7273,23.0551,357.2727,22.7063,366.8182,22.7493,376.3636,23.0647,385.9091,22.4414,395.4545,23.6865,405,23.1328,404.7899,23.1328,404.9341,29.1922,405.144,35.2516,404.9714,41.3109,405.0227,47.3703,405,53.4297,405,53.3977,395.4545,53.6082,385.9091,53.6688,376.3636,54.0154,366.8182,54.1007,357.2727,54.1089,347.7273,53.6843,338.1818,53.8933,328.6364,54.1319,319.0909,52.7085,309.5455,54.1082,300,53.4297,299.9012,53.4297,300.1779,47.3703,299.835,41.3109,299.9772,35.2516,300.2472,29.1922,300,23.1328" style="stroke: #383838; stroke-width: 1.5;"/><text fill="#000000" font-family="sans-serif" font-size="14" lengthAdjust="spacingAndGlyphs" textLength="91" x="307" y="43.1279">nginx-service</text><polygon fill="#F8F8F8" filter="url(#f12mfk18p1v285)" points="452,23.1328,452,23.343,462.375,22.7185,472.75,23.3261,483.125,23.5325,493.5,22.4194,503.875,23.0551,514.25,22.7063,524.625,22.7493,535,23.1328,534.9773,23.1328,534.7695,29.1922,535.1845,35.2516,534.7899,41.3109,534.9341,47.3703,535,53.4297,535,53.8616,524.625,53.3439,514.25,53.4979,503.875,53.3977,493.5,53.6082,483.125,53.6688,472.75,54.0154,462.375,54.1007,452,53.4297,452.2264,53.4297,452.0849,47.3703,452.1545,41.3109,452.2341,35.2516,451.7596,29.1922,452,23.1328" style="stroke: #383838; stroke-width: 1.5;"/><text fill="#000000" font-family="sans-serif" font-size="14" lengthAdjust="spacingAndGlyphs" textLength="69" x="459" y="43.1279">nginx-pod</text><polygon fill="#383838" points="185.5,85.5625,185.526,85.6275,187.4487,86.2343,189.5239,87.2223,191.5495,88.0862,193.4117,88.5417,195.5,89.5625,195.4904,89.5384,193.4472,90.2305,191.4525,91.0438,189.4916,91.9414,187.4144,92.5485,185.5,93.5625,185.6305,93.693,186.1514,92.6139,187.0534,91.9159,188.0018,91.2643,188.6798,90.3423,189.5,89.5625,189.5161,89.5786,188.6925,88.755,187.9421,88.0046,187.1564,87.2189,186.438,86.5005,185.5,85.5625" style="stroke: #383838; stroke-width: 1.0;"/><path d="M35.5,89.5625 L35.5,89.8427 L45.25,89.0101 L55,89.8202 L64.75,90.0954 L74.5,88.6113 L84.25,89.4589 L94,88.9938 L103.75,89.0512 L113.5,89.4716 L123.25,88.6407 L133,90.3007 L142.75,88.7221 L152.5,89.2988 L162.25,90.1384 L172,89.4481 L181.75,89.6535 L191.5,89.5625 " fill="none" style="stroke: #383838; stroke-width: 1.0;"/><text fill="#000000" font-family="sans-serif" font-size="13" lengthAdjust="spacingAndGlyphs" textLength="138" x="42.5" y="84.4966">HTTP Request Port 80</text><polygon fill="#383838" points="342.5,114.6953,342.526,114.7604,344.4487,115.3671,346.5239,116.3551,348.5495,117.219,350.4117,117.6745,352.5,118.6953,352.4904,118.6713,350.4472,119.3633,348.4525,120.1766,346.4916,121.0742,344.4144,121.6813,342.5,122.6953,342.6305,122.8258,343.1514,121.7468,344.0534,121.0487,345.0018,120.3971,345.6798,119.4751,346.5,118.6953,346.5161,118.7114,345.6925,117.8878,344.9421,117.1374,344.1564,116.3517,343.438,115.6334,342.5,114.6953" style="stroke: #383838; stroke-width: 1.0;"/><path d="M197.5,118.6953 L197.5,118.9756 L207.5667,118.1429 L217.6333,118.953 L227.7,119.2282 L237.7667,117.7441 L247.8333,118.5917 L257.9,118.1267 L267.9667,118.184 L278.0333,118.6044 L288.1,117.7735 L298.1667,119.4335 L308.2333,117.8549 L318.3,118.4316 L328.3667,119.2712 L338.4333,118.5809 L348.5,118.6953 " fill="none" style="stroke: #383838; stroke-width: 1.0;"/><text fill="#000000" font-family="sans-serif" font-size="13" lengthAdjust="spacingAndGlyphs" textLength="133" x="204.5" y="113.6294">Forward to Port 8080</text><polygon fill="#383838" points="483.5,143.8281,483.526,143.8932,485.4487,144.4999,487.5239,145.4879,489.5495,146.3518,491.4117,146.8073,493.5,147.8281,493.4904,147.8041,491.4472,148.4961,489.4525,149.3094,487.4916,150.207,485.4144,150.8142,483.5,151.8281,483.6305,151.9586,484.1514,150.8796,485.0534,150.1815,486.0018,149.5299,486.6798,148.6079,487.5,147.8281,487.5161,147.8442,486.6925,147.0206,485.9421,146.2702,485.1564,145.4845,484.438,144.7662,483.5,143.8281" style="stroke: #383838; stroke-width: 1.0;"/><path d="M354.5,147.8281 L354.5,148.1084 L364.1429,147.2757 L373.7857,148.0858 L383.4286,148.361 L393.0714,146.8769 L402.7143,147.7245 L412.3571,147.2595 L422,147.3168 L431.6429,147.7372 L441.2857,146.9063 L450.9286,148.5663 L460.5714,146.9878 L470.2143,147.5644 L479.8571,148.4041 L489.5,147.8281 " fill="none" style="stroke: #383838; stroke-width: 1.0;"/><text fill="#000000" font-family="sans-serif" font-size="13" lengthAdjust="spacingAndGlyphs" textLength="117" x="361.5" y="142.7622">Forward to Port 80</text><polygon fill="#383838" points="365.5,172.9609,365.526,173.026,363.4487,173.6327,361.5239,174.6208,359.5495,175.4846,357.4117,175.9401,355.5,176.9609,355.4904,176.9369,357.4472,177.6289,359.4525,178.4422,361.4916,179.3398,363.4144,179.947,365.5,180.9609,365.6305,181.0914,364.5514,180.0124,363.8534,179.3143,363.2018,178.6627,362.2798,177.7407,361.5,176.9609,361.5161,176.977,362.2925,176.1534,363.1421,175.403,363.9564,174.6173,364.838,173.899,365.5,172.9609" style="stroke: #383838; stroke-width: 1.0;"/><path d="M359.5,176.9609 L359.5,177.2412 L369.1429,176.4085 L378.7857,177.2187 L388.4286,177.4938 L398.0714,176.0097 L407.7143,176.8573 L417.3571,176.3923 L427,176.4496 L436.6429,176.8701 L446.2857,176.0391 L455.9286,177.6991 L465.5714,176.1206 L475.2143,176.6972 L484.8571,177.5369 L494.5,176.9609 " fill="none" style="stroke: #383838; stroke-width: 1.0; stroke-dasharray: 2.0,2.0;"/><text fill="#000000" font-family="sans-serif" font-size="13" lengthAdjust="spacingAndGlyphs" textLength="62" x="371.5" y="171.895">Response</text><polygon fill="#383838" points="208.5,202.0938,208.526,202.1588,206.4487,202.7655,204.5239,203.7536,202.5495,204.6174,200.4117,205.073,198.5,206.0938,198.4904,206.0697,200.4472,206.7618,202.4525,207.5751,204.4916,208.4727,206.4144,209.0798,208.5,210.0938,208.6305,210.2242,207.5514,209.1452,206.8534,208.4471,206.2018,207.7956,205.2798,206.8735,204.5,206.0938,204.5161,206.1098,205.2925,205.2862,206.1421,204.5358,206.9564,203.7501,207.838,203.0318,208.5,202.0938" style="stroke: #383838; stroke-width: 1.0;"/><path d="M202.5,206.0938 L202.5,206.374 L212.5667,205.5413 L222.6333,206.3515 L232.7,206.6267 L242.7667,205.1426 L252.8333,205.9901 L262.9,205.5251 L272.9667,205.5824 L283.0333,206.0029 L293.1,205.1719 L303.1667,206.8319 L313.2333,205.2534 L323.3,205.8301 L333.3667,206.6697 L343.4333,205.9794 L353.5,206.0938 " fill="none" style="stroke: #383838; stroke-width: 1.0; stroke-dasharray: 2.0,2.0;"/><text fill="#000000" font-family="sans-serif" font-size="13" lengthAdjust="spacingAndGlyphs" textLength="62" x="214.5" y="201.0278">Response</text><polygon fill="#383838" points="46.5,231.2266,46.526,231.2916,44.4487,231.8983,42.5239,232.8864,40.5495,233.7503,38.4117,234.2058,36.5,235.2266,36.4904,235.2025,38.4472,235.8946,40.4525,236.7079,42.4916,237.6055,44.4144,238.2126,46.5,239.2266,46.6305,239.3571,45.5514,238.278,44.8534,237.5799,44.2018,236.9284,43.2798,236.0063,42.5,235.2266,42.5161,235.2426,43.2925,234.419,44.1421,233.6686,44.9564,232.8829,45.838,232.1646,46.5,231.2266" style="stroke: #383838; stroke-width: 1.0;"/><path d="M40.5,235.2266 L40.5,235.5068 L50.25,234.6741 L60,235.4843 L69.75,235.7595 L79.5,234.2754 L89.25,235.1229 L99,234.6579 L108.75,234.7152 L118.5,235.1357 L128.25,234.3047 L138,235.9648 L147.75,234.3862 L157.5,234.9629 L167.25,235.8025 L177,235.1122 L186.75,235.3175 L196.5,235.2266 " fill="none" style="stroke: #383838; stroke-width: 1.0; stroke-dasharray: 2.0,2.0;"/><text fill="#000000" font-family="sans-serif" font-size="13" lengthAdjust="spacingAndGlyphs" textLength="62" x="52.5" y="230.1606">Response</text><!--MD5=[7aa5beb03cf4d86aa9ac514ad0de6748]
@startuml
skinparam handwritten true
skinparam Monochrome true
hide footbox

participant client

box "Kubernetes Cluster"
participant "nginx-ingress" as ingress
participant "nginx-service" as service
participant "nginx-pod"     as pod
end box

client        -> ingress  : HTTP Request Port 80
ingress -> service  : Forward to Port 8080
service -> pod      : Forward to Port 80

service <- - pod     : Response
ingress <- - service : Response
client <- - ingress : Response

@enduml

PlantUML version 1.2020.02(Sun Mar 01 10:22:07 GMT 2020)
(GPL source distribution)
Java Runtime: OpenJDK Runtime Environment
JVM: OpenJDK 64-Bit Server VM
Java Version: 11.0.9+11-Ubuntu-0ubuntu1
Operating System: Linux
Default Encoding: ANSI_X3.4-1968
Language: en
Country: US
--></g></svg>